<?xml version="1.0" encoding="UTF-8" standalone="no"?>
<svg
   width="728"
   height="778"
   viewBox="0 0 728 778"
   fill="none"
   version="1.1"
   id="svg152"
   sodipodi:docname="mudata_paper.svg"
   inkscape:version="1.2.1 (9c6d41e4, 2022-07-14)"
   xmlns:inkscape="http://www.inkscape.org/namespaces/inkscape"
   xmlns:sodipodi="http://sodipodi.sourceforge.net/DTD/sodipodi-0.dtd"
   xmlns="http://www.w3.org/2000/svg"
   xmlns:svg="http://www.w3.org/2000/svg">
  <defs
     id="defs156">
    <rect
       x="405.28724"
       y="44.695229"
       width="128.78286"
       height="23.483934"
       id="rect5429" />
    <rect
       x="405.28723"
       y="44.695229"
       width="128.78287"
       height="23.483934"
       id="rect5429-5" />
  </defs>
  <sodipodi:namedview
     id="namedview154"
     pagecolor="#ffffff"
     bordercolor="#000000"
     borderopacity="0.25"
     inkscape:showpageshadow="2"
     inkscape:pageopacity="0.0"
     inkscape:pagecheckerboard="0"
     inkscape:deskcolor="#d1d1d1"
     showgrid="false"
     inkscape:zoom="1.3200514"
     inkscape:cx="369.68257"
     inkscape:cy="404.15093"
     inkscape:window-width="1634"
     inkscape:window-height="1291"
     inkscape:window-x="728"
     inkscape:window-y="25"
     inkscape:window-maximized="0"
     inkscape:current-layer="svg152" />
  <path
     d="M372.387 150.554C374.773 150.554 376.707 152.488 376.707 154.874L376.707 773.542C376.707 775.928 374.773 777.863 372.387 777.863L155.196 777.863C152.81 777.863 150.876 775.928 150.876 773.542L150.876 154.874C150.876 152.488 152.81 150.554 155.196 150.554L372.387 150.554Z"
     fill="#5B93BB"
     id="path132"
     style="stroke:#000000;stroke-opacity:1;fill:#4fba6f;fill-opacity:1;stroke-width:1.7;stroke-dasharray:none" />
  <path
     d="M121.463 150.554C123.849 150.554 125.784 152.488 125.784 154.874L125.784 773.542C125.784 775.928 123.849 777.863 121.463 777.863L4.64213 777.863C2.25613 777.863 0.321887 775.928 0.321887 773.542L0.321914 154.874C0.321915 152.488 2.25615 150.554 4.64215 150.554L121.463 150.554Z"
     fill="#06B873"
     id="path134"
     style="stroke:#000000;stroke-opacity:1;fill:#efc41c;fill-opacity:1;stroke-width:1.7;stroke-dasharray:none" />
  <path
     d="M723.68 150.554C726.066 150.554 728 152.488 728 154.874L728 698.265C728 700.651 726.066 702.586 723.68 702.586L406.12 702.586C403.734 702.586 401.8 700.651 401.8 698.265L401.8 154.874C401.8 152.488 403.734 150.554 406.12 150.554L723.68 150.554Z"
     fill="#D3795D"
     id="path136"
     style="stroke:#000000;stroke-opacity:1;stroke-width:1.7;stroke-dasharray:none" />
  <path
     d="M728 121.142C728 123.528 726.066 125.462 723.68 125.462L155.196 125.462C152.81 125.462 150.876 123.528 150.876 121.142L150.876 4.32036C150.876 1.93436 152.81 0.000113189 155.196 0.000113416L723.68 0.000167436C726.066 0.000167663 728 1.9344 728 4.3204L728 121.142Z"
     fill="#06B873"
     id="path140"
     style="stroke:#000000;stroke-opacity:1;fill:#2c96c0;fill-opacity:1;stroke-width:1.7;stroke-dasharray:none" />
  <path
     d="M159.964 446.479H153.674L167.807 407.204H174.654L188.787 446.479H182.497L171.393 414.338H171.087L159.964 446.479ZM161.019 431.099L181.423 431.099V436.085L161.019 436.085V431.099ZM199.733 428.989V446.479L193.999 446.479L193.999 417.023L199.502 417.023V421.817H199.867C200.544 420.257 201.606 419.004 203.05 418.058C204.508 417.112 206.342 416.639 208.554 416.639C210.561 416.639 212.319 417.061 213.828 417.905C215.336 418.736 216.506 419.976 217.337 421.625C218.168 423.274 218.584 425.314 218.584 427.743V446.479H212.85V428.433C212.85 426.298 212.294 424.63 211.181 423.428C210.069 422.213 208.541 421.606 206.598 421.606C205.268 421.606 204.086 421.894 203.05 422.469C202.027 423.044 201.216 423.888 200.615 425C200.027 426.1 199.733 427.429 199.733 428.989ZM232.008 428.989V446.479L226.274 446.479L226.274 417.023L231.778 417.023V421.817H232.142C232.82 420.257 233.881 419.004 235.325 418.058C236.783 417.112 238.618 416.639 240.829 416.639C242.837 416.639 244.594 417.061 246.103 417.905C247.612 418.736 248.781 419.976 249.612 421.625C250.443 423.274 250.859 425.314 250.859 427.743V446.479H245.125V428.433C245.125 426.298 244.569 424.63 243.457 423.428C242.344 422.213 240.817 421.606 238.873 421.606C237.544 421.606 236.361 421.894 235.325 422.469C234.303 423.044 233.491 423.888 232.89 425C232.302 426.1 232.008 427.429 232.008 428.989ZM271.724 446.479H259.009L259.009 407.204H272.126C275.975 407.204 279.28 407.99 282.041 409.563C284.803 411.122 286.918 413.366 288.389 416.294C289.872 419.209 290.613 422.705 290.613 426.784C290.613 430.875 289.865 434.391 288.37 437.331C286.887 440.272 284.739 442.535 281.926 444.12C279.113 445.692 275.713 446.479 271.724 446.479ZM264.935 441.301H271.398C274.389 441.301 276.876 440.738 278.858 439.613C280.839 438.475 282.322 436.833 283.307 434.685C284.291 432.524 284.783 429.89 284.783 426.784C284.783 423.703 284.291 421.088 283.307 418.94C282.335 416.792 280.884 415.162 278.954 414.05C277.023 412.938 274.626 412.382 271.762 412.382H264.935L264.935 441.301ZM306.094 447.131C304.228 447.131 302.54 446.786 301.031 446.095C299.523 445.392 298.327 444.376 297.445 443.046C296.576 441.716 296.141 440.086 296.141 438.156C296.141 436.494 296.461 435.126 297.1 434.052C297.739 432.978 298.602 432.128 299.689 431.501C300.776 430.875 301.99 430.402 303.333 430.082C304.675 429.763 306.043 429.52 307.436 429.354C309.201 429.149 310.633 428.983 311.732 428.855C312.832 428.714 313.631 428.491 314.129 428.184C314.628 427.877 314.877 427.378 314.877 426.688V426.554C314.877 424.879 314.404 423.581 313.458 422.661C312.525 421.74 311.131 421.28 309.278 421.28C307.347 421.28 305.826 421.708 304.713 422.565C303.614 423.409 302.853 424.348 302.431 425.384L297.042 424.157C297.682 422.367 298.615 420.922 299.842 419.822C301.082 418.71 302.508 417.905 304.119 417.406C305.73 416.895 307.424 416.639 309.201 416.639C310.377 416.639 311.624 416.78 312.94 417.061C314.27 417.329 315.51 417.828 316.661 418.557C317.824 419.285 318.777 420.327 319.518 421.683C320.26 423.025 320.63 424.77 320.63 426.918L320.63 446.479L315.031 446.479V442.452H314.801C314.43 443.193 313.874 443.922 313.132 444.638C312.391 445.354 311.438 445.948 310.275 446.421C309.111 446.894 307.718 447.131 306.094 447.131ZM307.341 442.528C308.926 442.528 310.281 442.215 311.406 441.589C312.544 440.962 313.407 440.144 313.995 439.134C314.596 438.111 314.896 437.018 314.896 435.855V432.058C314.692 432.262 314.296 432.454 313.707 432.633C313.132 432.799 312.474 432.946 311.732 433.074C310.991 433.189 310.268 433.298 309.565 433.4C308.862 433.489 308.274 433.566 307.801 433.63C306.689 433.771 305.672 434.007 304.752 434.34C303.844 434.672 303.115 435.151 302.565 435.778C302.029 436.392 301.76 437.21 301.76 438.233C301.76 439.652 302.284 440.726 303.333 441.454C304.381 442.17 305.717 442.528 307.341 442.528ZM342.018 417.023V421.625H325.928V417.023H342.018ZM330.243 409.965H335.977L335.977 437.83C335.977 438.942 336.143 439.78 336.476 440.342C336.808 440.892 337.236 441.269 337.76 441.474C338.297 441.665 338.879 441.761 339.506 441.761C339.966 441.761 340.369 441.729 340.714 441.665C341.059 441.601 341.327 441.55 341.519 441.512L342.555 446.249C342.222 446.376 341.749 446.504 341.136 446.632C340.522 446.773 339.755 446.85 338.834 446.862C337.326 446.888 335.919 446.619 334.615 446.057C333.311 445.494 332.257 444.625 331.451 443.449C330.646 442.273 330.243 440.796 330.243 439.019L330.243 409.965ZM356.933 447.131C355.066 447.131 353.379 446.786 351.87 446.095C350.361 445.392 349.166 444.376 348.284 443.046C347.415 441.716 346.98 440.086 346.98 438.156C346.98 436.494 347.299 435.126 347.939 434.052C348.578 432.978 349.441 432.128 350.528 431.501C351.614 430.875 352.829 430.402 354.171 430.082C355.514 429.763 356.882 429.52 358.275 429.354C360.04 429.149 361.471 428.983 362.571 428.855C363.67 428.714 364.469 428.491 364.968 428.184C365.467 427.877 365.716 427.378 365.716 426.688V426.554C365.716 424.879 365.243 423.581 364.297 422.661C363.364 421.74 361.97 421.28 360.116 421.28C358.186 421.28 356.664 421.708 355.552 422.565C354.453 423.409 353.692 424.348 353.27 425.384L347.881 424.157C348.52 422.367 349.454 420.922 350.681 419.822C351.921 418.71 353.347 417.905 354.958 417.406C356.568 416.895 358.262 416.639 360.04 416.639C361.216 416.639 362.462 416.78 363.779 417.061C365.109 417.329 366.349 417.828 367.499 418.557C368.663 419.285 369.615 420.327 370.357 421.683C371.098 423.025 371.469 424.77 371.469 426.918L371.469 446.479H365.869V442.452H365.639C365.269 443.193 364.712 443.922 363.971 444.638C363.229 445.354 362.277 445.948 361.113 446.421C359.95 446.894 358.557 447.131 356.933 447.131ZM358.179 442.528C359.765 442.528 361.12 442.215 362.245 441.589C363.383 440.962 364.246 440.144 364.834 439.134C365.435 438.111 365.735 437.018 365.735 435.855V432.058C365.531 432.262 365.134 432.454 364.546 432.633C363.971 432.799 363.312 432.946 362.571 433.074C361.829 433.189 361.107 433.298 360.404 433.4C359.701 433.489 359.113 433.566 358.64 433.63C357.527 433.771 356.511 434.007 355.59 434.34C354.683 434.672 353.954 435.151 353.404 435.778C352.867 436.392 352.599 437.21 352.599 438.233C352.599 439.652 353.123 440.726 354.171 441.454C355.22 442.17 356.556 442.528 358.179 442.528Z"
     fill="white"
     id="path148" />
  <path
     d="M461.072 446.479H454.782L468.916 407.204H475.762L489.896 446.479H483.605L472.502 414.338H472.195L461.072 446.479ZM462.127 431.099L482.532 431.099V436.085L462.127 436.085V431.099ZM500.841 428.989V446.479L495.107 446.479L495.107 417.023L500.611 417.023L500.611 421.817H500.975C501.653 420.257 502.714 419.004 504.159 418.058C505.616 417.112 507.451 416.639 509.662 416.639C511.67 416.639 513.428 417.061 514.936 417.905C516.445 418.736 517.615 419.976 518.446 421.625C519.277 423.274 519.692 425.314 519.692 427.743L519.692 446.479H513.958L513.958 428.433C513.958 426.298 513.402 424.63 512.29 423.428C511.177 422.213 509.65 421.606 507.706 421.606C506.377 421.606 505.194 421.894 504.159 422.469C503.136 423.044 502.324 423.888 501.723 425C501.135 426.1 500.841 427.429 500.841 428.989ZM533.116 428.989L533.116 446.479L527.382 446.479L527.382 417.023L532.886 417.023V421.817H533.25C533.928 420.257 534.989 419.004 536.434 418.058C537.891 417.112 539.726 416.639 541.938 416.639C543.945 416.639 545.703 417.061 547.211 417.905C548.72 418.736 549.89 419.976 550.721 421.625C551.552 423.274 551.967 425.314 551.967 427.743L551.967 446.479H546.233L546.233 428.433C546.233 426.298 545.677 424.63 544.565 423.428C543.453 422.213 541.925 421.606 539.982 421.606C538.652 421.606 537.469 421.894 536.434 422.469C535.411 423.044 534.599 423.888 533.998 425C533.41 426.1 533.116 427.429 533.116 428.989ZM572.832 446.479H560.118L560.118 407.204H573.235C577.083 407.204 580.388 407.99 583.149 409.563C585.911 411.122 588.027 413.366 589.497 416.294C590.98 419.209 591.722 422.705 591.722 426.784C591.722 430.875 590.974 434.391 589.478 437.331C587.995 440.272 585.847 442.535 583.034 444.12C580.222 445.692 576.821 446.479 572.832 446.479ZM566.043 441.301H572.506C575.498 441.301 577.984 440.738 579.966 439.613C581.948 438.475 583.431 436.833 584.415 434.685C585.4 432.524 585.892 429.89 585.892 426.784C585.892 423.703 585.4 421.088 584.415 418.94C583.444 416.792 581.992 415.162 580.062 414.05C578.131 412.938 575.734 412.382 572.871 412.382H566.043V441.301ZM607.202 447.131C605.336 447.131 603.648 446.786 602.14 446.095C600.631 445.392 599.436 444.376 598.554 443.046C597.684 441.716 597.25 440.086 597.25 438.156C597.25 436.494 597.569 435.126 598.208 434.052C598.848 432.978 599.711 432.128 600.797 431.501C601.884 430.875 603.099 430.402 604.441 430.082C605.783 429.763 607.151 429.52 608.545 429.354C610.309 429.149 611.741 428.983 612.841 428.855C613.94 428.714 614.739 428.491 615.238 428.184C615.736 427.877 615.986 427.378 615.986 426.688V426.554C615.986 424.879 615.513 423.581 614.567 422.661C613.633 421.74 612.24 421.28 610.386 421.28C608.455 421.28 606.934 421.708 605.822 422.565C604.722 423.409 603.962 424.348 603.54 425.384L598.151 424.157C598.79 422.367 599.723 420.922 600.951 419.822C602.191 418.71 603.616 417.905 605.227 417.406C606.838 416.895 608.532 416.639 610.309 416.639C611.485 416.639 612.732 416.78 614.049 417.061C615.378 417.329 616.618 417.828 617.769 418.557C618.933 419.285 619.885 420.327 620.627 421.683C621.368 423.025 621.739 424.77 621.739 426.918V446.479L616.139 446.479V442.452H615.909C615.538 443.193 614.982 443.922 614.241 444.638C613.499 445.354 612.547 445.948 611.383 446.421C610.22 446.894 608.826 447.131 607.202 447.131ZM608.449 442.528C610.034 442.528 611.39 442.215 612.515 441.589C613.652 440.962 614.515 440.144 615.103 439.134C615.704 438.111 616.005 437.018 616.005 435.855V432.058C615.8 432.262 615.404 432.454 614.816 432.633C614.241 432.799 613.582 432.946 612.841 433.074C612.099 433.189 611.377 433.298 610.674 433.4C609.97 433.489 609.382 433.566 608.909 433.63C607.797 433.771 606.781 434.007 605.86 434.34C604.952 434.672 604.224 435.151 603.674 435.778C603.137 436.392 602.868 437.21 602.868 438.233C602.868 439.652 603.393 440.726 604.441 441.454C605.489 442.17 606.825 442.528 608.449 442.528ZM643.126 417.023V421.625H627.036V417.023H643.126ZM631.351 409.965H637.085V437.83C637.085 438.942 637.252 439.78 637.584 440.342C637.916 440.892 638.345 441.269 638.869 441.474C639.406 441.665 639.987 441.761 640.614 441.761C641.074 441.761 641.477 441.729 641.822 441.665C642.167 441.601 642.436 441.55 642.628 441.512L643.663 446.249C643.331 446.376 642.858 446.504 642.244 446.632C641.63 446.773 640.863 446.85 639.943 446.862C638.434 446.888 637.028 446.619 635.724 446.057C634.42 445.494 633.365 444.625 632.56 443.449C631.754 442.273 631.351 440.796 631.351 439.019V409.965ZM658.041 447.131C656.175 447.131 654.487 446.786 652.978 446.095C651.47 445.392 650.274 444.376 649.392 443.046C648.523 441.716 648.088 440.086 648.088 438.156C648.088 436.494 648.408 435.126 649.047 434.052C649.686 432.978 650.549 432.128 651.636 431.501C652.723 430.875 653.937 430.402 655.28 430.082C656.622 429.763 657.99 429.52 659.384 429.354C661.148 429.149 662.58 428.983 663.679 428.855C664.779 428.714 665.578 428.491 666.076 428.184C666.575 427.877 666.824 427.378 666.824 426.688V426.554C666.824 424.879 666.351 423.581 665.405 422.661C664.472 421.74 663.078 421.28 661.225 421.28C659.294 421.28 657.773 421.708 656.66 422.565C655.561 423.409 654.8 424.348 654.378 425.384L648.99 424.157C649.629 422.367 650.562 420.922 651.789 419.822C653.03 418.71 654.455 417.905 656.066 417.406C657.677 416.895 659.371 416.639 661.148 416.639C662.324 416.639 663.571 416.78 664.887 417.061C666.217 417.329 667.457 417.828 668.608 418.557C669.771 419.285 670.724 420.327 671.465 421.683C672.207 423.025 672.578 424.77 672.578 426.918V446.479H666.978V442.452H666.748C666.377 443.193 665.821 443.922 665.079 444.638C664.338 445.354 663.385 445.948 662.222 446.421C661.058 446.894 659.665 447.131 658.041 447.131ZM659.288 442.528C660.873 442.528 662.228 442.215 663.353 441.589C664.491 440.962 665.354 440.144 665.942 439.134C666.543 438.111 666.844 437.018 666.844 435.855V432.058C666.639 432.262 666.243 432.454 665.655 432.633C665.079 432.799 664.421 432.946 663.679 433.074C662.938 433.189 662.215 433.298 661.512 433.4C660.809 433.489 660.221 433.566 659.748 433.63C658.636 433.771 657.619 434.007 656.699 434.34C655.791 434.672 655.062 435.151 654.513 435.778C653.976 436.392 653.707 437.21 653.707 438.233C653.707 439.652 654.231 440.726 655.28 441.454C656.328 442.17 657.664 442.528 659.288 442.528Z"
     fill="white"
     id="path150" />
  <text
     xml:space="preserve"
     id="text5427"
     style="font-style:normal;font-variant:normal;font-weight:500;font-stretch:normal;font-size:13.6895px;font-family:Roboto;-inkscape-font-specification:'Roboto, Medium';font-variant-ligatures:normal;font-variant-caps:normal;font-variant-numeric:normal;font-variant-east-asian:normal;white-space:pre;shape-inside:url(#rect5429);display:inline;opacity:1;fill:#ffffff;fill-opacity:1;stroke:#090606;stroke-width:3.94583;stroke-opacity:0"
     transform="matrix(3.9478713,0,0,3.8446761,-1182.6305,-142.06767)"><tspan
       x="405.28711"
       y="56.673625"
       id="tspan7920">var</tspan></text>
  <text
     xml:space="preserve"
     id="text5427-4"
     style="font-style:normal;font-variant:normal;font-weight:500;font-stretch:normal;font-size:13.6895px;font-family:Roboto;-inkscape-font-specification:'Roboto, Medium';font-variant-ligatures:normal;font-variant-caps:normal;font-variant-numeric:normal;font-variant-east-asian:normal;white-space:pre;shape-inside:url(#rect5429-5);display:inline;fill:#ffffff;fill-opacity:1;stroke:#090606;stroke-width:3.94583;stroke-opacity:0"
     transform="matrix(0.03033005,-3.9477548,3.8445626,0.02953724,-153.81113,2088.0507)"><tspan
       x="405.28711"
       y="56.673625"
       id="tspan7922">obs</tspan></text>
</svg>
